Coordinates
version=1
nRows=18
nColumns=22
inDegrees=yes

Units are S.I. units (second, meters, Newtons, ...)
If the header above contains a line with 'inDegrees', this indicates whether rotational values are in degrees (yes) or radians (no).

endheader
time	pelvis_tilt	pelvis_list	pelvis_rotation	pelvis_tx	pelvis_ty	pelvis_tz	hip_flexion_r	hip_adduction_r	hip_rotation_r	knee_angle_r	ankle_angle_r	subtalar_angle_r	hip_flexion_l	hip_adduction_l	hip_rotation_l	knee_angle_l	ankle_angle_l	subtalar_angle_l	lumbar_extension	lumbar_bending	lumbar_rotation
      2.77000000	     -0.87938193	     -4.79183994	      1.23700949	     -0.42933132	      1.01732825	      0.01446961	     10.86396704	      6.42514824	     -7.29986011	    -19.12219331	      6.40765401	     -1.74816001	     14.74088084	     -9.73768291	     -7.58798144	    -63.47685316	      3.17000760	      1.60557037	     -5.43198499	      2.57032779	     -3.93242818
      2.78000000	     -0.78097025	     -4.61252636	      1.19371700	     -0.41995485	      1.01818830	      0.01559091	      9.94895212	      6.34921836	     -7.27151065	    -18.71829876	      6.78338127	     -1.69067879	     15.79890689	     -9.43736280	     -7.59278467	    -62.98214139	      3.89500132	      1.67706026	     -5.50373811	      2.25529996	     -3.51158119
      2.79000000	     -0.68782053	     -4.44639632	      1.13933678	     -0.41061477	      1.01892293	      0.01671670	      9.03661839	      6.28663345	     -7.21857396	    -18.30040066	      7.14341270	     -1.62311969	     16.81294389	     -9.16431897	     -7.65130195	    -62.28298308	      4.56202569	      1.75011017	     -5.57911048	      1.95280637	     -3.07814011
      2.80000000	     -0.59472629	     -4.29498084	      1.08529152	     -0.40126960	      1.01953987	      0.01782755	      8.11798962	      6.23745709	     -7.14024197	    -17.86856609	      7.48365119	     -1.55532629	     17.77206480	     -8.92553090	     -7.76148763	    -61.38162331	      5.14403085	      1.79974262	     -5.65617806	      1.66425846	     -2.64991706
      2.81000000	     -0.50605762	     -4.16085428	      1.03090206	     -0.39196046	      1.02000367	      0.01888845	      7.21309390	      6.19960263	     -7.06513763	    -17.44676841	      7.81951491	     -1.50956958	     18.68523881	     -8.71549973	     -7.91297079	    -60.29829305	      5.68763108	      1.80200336	     -5.74004052	      1.39863667	     -2.20897340
      2.82000000	     -0.41794980	     -4.04203783	      0.97959260	     -0.38263657	      1.02033800	      0.01990173	      6.30780694	      6.17333277	     -6.98368115	    -17.02267821	      8.15283378	     -1.47370737	     19.53473619	     -8.53390735	     -8.10698431	    -59.02203955	      6.15450302	      1.78637374	     -5.82531400	      1.15159159	     -1.77864727
      2.83000000	     -0.30777514	     -3.92859777	      0.93309201	     -0.37327782	      1.02057308	      0.02085461	      5.37365802	      6.14815360	     -6.89394295	    -16.59271377	      8.48972923	     -1.43136152	     20.29204138	     -8.37941724	     -8.36768217	    -57.56216199	      6.52359536	      1.77565118	     -5.93718828	      0.91353455	     -1.36334695
      2.84000000	     -0.21101991	     -3.84378997	      0.90204731	     -0.36392608	      1.02062435	      0.02170940	      4.46386594	      6.14464481	     -6.82305335	    -16.17959744	      8.83366712	     -1.40227793	     21.00974434	     -8.25817156	     -8.65285965	    -55.94545966	      6.85259104	      1.78229988	     -6.03745643	      0.71267304	     -0.96976990
      2.85000000	     -0.11141947	     -3.77772013	      0.88081124	     -0.35456920	      1.02051834	      0.02247750	      3.55872889	      6.15439597	     -6.75974558	    -15.78306958	      9.18561417	     -1.37689578	     21.66433126	     -8.16659886	     -8.98272340	    -54.17779455	      7.12642894	      1.82744981	     -6.14581017	      0.53802227	     -0.59979137
      2.86000000	     -0.02272463	     -3.73842004	      0.87350424	     -0.34521149	      1.02022336	      0.02314422	      2.67991303	      6.18522165	     -6.71211756	    -15.41537455	      9.54713130	     -1.36049989	     22.27524394	     -8.10411824	     -9.34320024	    -52.27400333	      7.36155617	      1.91884518	     -6.24499902	      0.40084725	     -0.25572051
      2.87000000	      0.06259908	     -3.72140012	      0.87983155	     -0.33583819	      1.01975170	      0.02371034	      1.81959314	      6.23373616	     -6.67669083	    -15.07995015	      9.91566839	     -1.34877078	     22.83231481	     -8.06543462	     -9.74155012	    -50.24250704	      7.53718284	      2.06885509	     -6.34139429	      0.29576575	      0.05277467
      2.88000000	      0.13263590	     -3.72552409	      0.89207027	     -0.32646046	      1.01907563	      0.02417748	      1.00431556	      6.29694262	     -6.65665623	    -14.80117414	     10.30841894	     -1.35078518	     23.34834133	     -8.04010055	    -10.16075011	    -48.09469704	      7.67540312	      2.26727708	     -6.42435655	      0.22107494	      0.35319667
      2.89000000	      0.19319967	     -3.74569730	      0.91314884	     -0.31707215	      1.01821143	      0.02455170	      0.22376878	      6.37140952	     -6.64539343	    -14.56984696	     10.72330848	     -1.35942084	     23.81927477	     -8.01987951	    -10.59737100	    -45.84267774	      7.74348024	      2.52190258	     -6.50102155	      0.16959628	      0.61476390
      2.90000000	      0.24704464	     -3.77740849	      0.94734108	     -0.30764592	      1.01716313	      0.02481418	     -0.52116073	      6.45078312	     -6.64964511	    -14.39674234	     11.16465143	     -1.37167378	     24.24403399	     -7.99343796	    -11.04208525	    -43.50186621	      7.73552274	      2.83631264	     -6.56900918	      0.14016430	      0.85124748
      2.91000000	      0.29158310	     -3.81728038	      0.99186844	     -0.29818011	      1.01593019	      0.02497889	     -1.22740483	      6.53244060	     -6.66680743	    -14.28206551	     11.63530831	     -1.38627204	     24.62918712	     -7.95278248	    -11.48010658	    -41.08972798	      7.65555537	      3.20895648	     -6.62687153	      0.12628663	      1.05837424
      2.92000000	      0.31967139	     -3.85945954	      1.04569981	     -0.28866373	      1.01450767	      0.02503396	     -1.88675700	      6.60859471	     -6.69226440	    -14.22992183	     12.14358858	     -1.40724756	     24.98557431	     -7.88727307	    -11.90024767	    -38.62391592	      7.50348798	      3.62314366	     -6.66580210	      0.12389952	      1.23818487
      2.93000000	      0.36314537	     -3.90886086	      1.11412581	     -0.27907035	      1.01296053	      0.02501385	     -2.55040176	      6.69068454	     -6.71434903	    -14.20999317	     12.65991004	     -1.40415444	     25.28168570	     -7.80185944	    -12.27964752	    -36.12096420	      7.31841978	      4.15926828	     -6.72213954	      0.13059401	      1.37274650
      2.94000000	      0.37632041	     -3.93798882	      1.17946684	     -0.26942247	      1.01122491	      0.02490355	     -3.14348460	      6.74013049	     -6.75144800	    -14.27322955	     13.21882824	     -1.41424156	     25.56786747	     -7.66931685	    -12.62908847	    -33.60243492	      7.06847936	      4.68020195	     -6.74441803	      0.11886597	      1.49825782
